<svg width="41" height="40" viewBox="0 0 41 40" fill="none" xmlns="http://www.w3.org/2000/svg">
<g id="chef-hat">
<path id="Vector" d="M10.5 23.1167C8.80989 22.7538 7.32686 21.7486 6.3637 20.3132C5.40055 18.8778 5.03258 17.1244 5.33742 15.4229C5.64227 13.7214 6.59608 12.2048 7.99767 11.1931C9.39926 10.1814 11.139 9.75359 12.85 10C13.271 9.0444 13.8642 8.17437 14.6 7.43334C15.3741 6.65728 16.2936 6.04157 17.3061 5.62146C18.3185 5.20135 19.4038 4.98511 20.5 4.98511C21.5961 4.98511 22.6814 5.20135 23.6939 5.62146C24.7063 6.04157 25.6259 6.65728 26.4 7.43334C27.1357 8.17437 27.7289 9.0444 28.15 10C29.8609 9.75359 31.6007 10.1814 33.0023 11.1931C34.4038 12.2048 35.3577 13.7214 35.6625 15.4229C35.9673 17.1244 35.5994 18.8778 34.6362 20.3132C33.6731 21.7486 32.19 22.7538 30.5 23.1167V35H10.5V23.1167Z" stroke="#FFD600" stroke-width="2" stroke-linecap="round" stroke-linejoin="round"/>
<path id="Vector_2" d="M10.5 28.3333H30.5" stroke="#FFD600" stroke-width="2" stroke-linecap="round" stroke-linejoin="round"/>
</g>
</svg>
