<svg width="17" height="17" viewBox="0 0 17 17" fill="none" xmlns="http://www.w3.org/2000/svg">
<g id="map-pin" clip-path="url(#clip0_450_1584)">
<path id="Vector" d="M13.8334 6.16665C13.8334 10.1666 8.50008 14.1666 8.50008 14.1666C8.50008 14.1666 3.16675 10.1666 3.16675 6.16665C3.16675 4.75216 3.72865 3.3956 4.72885 2.39541C5.72904 1.39522 7.08559 0.833313 8.50008 0.833313C9.91457 0.833313 11.2711 1.39522 12.2713 2.39541C13.2715 3.3956 13.8334 4.75216 13.8334 6.16665Z" fill="#FFD600"/>
<path id="Vector_2" d="M8.5 8.16669C9.60457 8.16669 10.5 7.27126 10.5 6.16669C10.5 5.06212 9.60457 4.16669 8.5 4.16669C7.39543 4.16669 6.5 5.06212 6.5 6.16669C6.5 7.27126 7.39543 8.16669 8.5 8.16669Z" fill="white"/>
</g>
<defs>
<clipPath id="clip0_450_1584">
<rect width="16" height="16" fill="white" transform="translate(0.5 0.5)"/>
</clipPath>
</defs>
</svg>
