<svg width="32" height="32" viewBox="0 0 32 32" fill="none" xmlns="http://www.w3.org/2000/svg">
<g id="shopping-cart">
<path id="Vector" d="M10.6666 29.3333C11.403 29.3333 11.9999 28.7363 11.9999 28C11.9999 27.2636 11.403 26.6666 10.6666 26.6666C9.93021 26.6666 9.33325 27.2636 9.33325 28C9.33325 28.7363 9.93021 29.3333 10.6666 29.3333Z" stroke="#FFD600" stroke-width="2" stroke-linecap="round" stroke-linejoin="round"/>
<path id="Vector_2" d="M25.3333 29.3333C26.0697 29.3333 26.6667 28.7363 26.6667 28C26.6667 27.2636 26.0697 26.6666 25.3333 26.6666C24.597 26.6666 24 27.2636 24 28C24 28.7363 24.597 29.3333 25.3333 29.3333Z" stroke="#FFD600" stroke-width="2" stroke-linecap="round" stroke-linejoin="round"/>
<path id="Vector_3" d="M2.7334 2.73328H5.40007L8.94673 19.2933C9.07684 19.8998 9.41429 20.4419 9.90101 20.8264C10.3877 21.2109 10.9933 21.4137 11.6134 21.3999H24.6534C25.2603 21.399 25.8487 21.191 26.3214 20.8104C26.7942 20.4298 27.1229 19.8993 27.2534 19.3066L29.4534 9.39994H6.82673" stroke="#FFD600" stroke-width="2" stroke-linecap="round" stroke-linejoin="round"/>
</g>
</svg>
