<svg width="41" height="40" viewBox="0 0 41 40" fill="none" xmlns="http://www.w3.org/2000/svg">
<g id="users">
<path id="Vector" d="M27.1666 35V31.6667C27.1666 29.8986 26.4642 28.2029 25.214 26.9526C23.9637 25.7024 22.268 25 20.4999 25H10.4999C8.73181 25 7.03612 25.7024 5.78587 26.9526C4.53563 28.2029 3.83325 29.8986 3.83325 31.6667V35" stroke="#D1D1D1" stroke-width="2" stroke-linecap="round" stroke-linejoin="round"/>
<path id="Vector_2" d="M15.4999 18.3333C19.1818 18.3333 22.1666 15.3486 22.1666 11.6667C22.1666 7.98477 19.1818 5 15.4999 5C11.818 5 8.83325 7.98477 8.83325 11.6667C8.83325 15.3486 11.818 18.3333 15.4999 18.3333Z" stroke="#D1D1D1" stroke-width="2" stroke-linecap="round" stroke-linejoin="round"/>
<path id="Vector_3" d="M37.1667 35V31.6667C37.1656 30.1896 36.674 28.7546 35.769 27.5872C34.864 26.4198 33.597 25.586 32.1667 25.2167" stroke="#D1D1D1" stroke-width="2" stroke-linecap="round" stroke-linejoin="round"/>
<path id="Vector_4" d="M27.1667 5.21667C28.6008 5.58384 29.8718 6.41784 30.7795 7.58719C31.6871 8.75654 32.1798 10.1947 32.1798 11.675C32.1798 13.1553 31.6871 14.5935 30.7795 15.7628C29.8718 16.9322 28.6008 17.7662 27.1667 18.1333" stroke="#D1D1D1" stroke-width="2" stroke-linecap="round" stroke-linejoin="round"/>
</g>
</svg>
